<svg xmlns="http://www.w3.org/2000/svg" viewBox="0 0 24 24" fill="none" stroke="#20A76B" stroke-width="1.75" stroke-linecap="round" stroke-linejoin="round">
  <path d="M8.15 3.34L8.01 3.33L7.86 3.32L7.72 3.31L7.58 3.29L7.43 3.28L7.29 3.27L7.14 3.26L7 3.25L6.85 3.24L6.71 3.23L6.56 3.21L6.42 3.2L6.27 3.19L6.13 3.18L5.98 3.17L5.84 3.16L5.69 3.15L5.55 3.13L5.41 3.12L5.26 3.11L5.12 3.1L4.97 3.1L4.83 3.11L4.68 3.12L4.54 3.15L4.4 3.19L4.26 3.24L4.13 3.3L4 3.37L3.88 3.45L3.76 3.53L3.65 3.63L3.55 3.73L3.45 3.84L3.37 3.95L3.29 4.07L3.22 4.2L3.16 4.33L3.11 4.47L3.07 4.61L3.04 4.75L3.02 4.89L3.01 5.04L2.99 5.18L2.98 5.33L2.97 5.47L2.96 5.62L2.95 5.76L2.94 5.91L2.93 6.05L2.91 6.2L2.9 6.34L2.89 6.49L2.88 6.63L2.87 6.77L2.86 6.92L2.85 7.06L2.83 7.21L2.82 7.35L2.81 7.5L2.8 7.64L2.79 7.79L2.78 7.93M20.66 8.15L20.67 8.01L20.68 7.86L20.69 7.72L20.71 7.58L20.72 7.43L20.73 7.29L20.74 7.14L20.75 7L20.76 6.85L20.77 6.71L20.79 6.56L20.8 6.42L20.81 6.27L20.82 6.13L20.83 5.98L20.84 5.84L20.85 5.69L20.87 5.55L20.88 5.41L20.89 5.26L20.9 5.12L20.9 4.97L20.89 4.83L20.88 4.68L20.85 4.54L20.81 4.4L20.76 4.26L20.7 4.13L20.63 4L20.55 3.88L20.47 3.76L20.37 3.65L20.27 3.55L20.16 3.45L20.05 3.37L19.93 3.29L19.8 3.22L19.67 3.16L19.53 3.11L19.39 3.07L19.25 3.04L19.11 3.02L18.96 3.01L18.82 2.99L18.67 2.98L18.53 2.97L18.38 2.96L18.24 2.95L18.09 2.94L17.95 2.93L17.8 2.91L17.66 2.9L17.51 2.89L17.37 2.88L17.23 2.87L17.08 2.86L16.94 2.85L16.79 2.83L16.65 2.82L16.5 2.81L16.36 2.8L16.21 2.79L16.07 2.78M3.34 15.85L3.33 15.99L3.32 16.14L3.31 16.28L3.29 16.42L3.28 16.57L3.27 16.71L3.26 16.86L3.25 17L3.24 17.15L3.23 17.29L3.21 17.44L3.2 17.58L3.19 17.73L3.18 17.87L3.17 18.02L3.16 18.16L3.15 18.31L3.13 18.45L3.12 18.59L3.11 18.74L3.1 18.88L3.1 19.03L3.11 19.17L3.12 19.32L3.15 19.46L3.19 19.6L3.24 19.74L3.3 19.87L3.37 20L3.45 20.12L3.53 20.24L3.63 20.35L3.73 20.45L3.84 20.55L3.95 20.63L4.07 20.71L4.2 20.78L4.33 20.84L4.47 20.89L4.61 20.93L4.75 20.96L4.89 20.98L5.04 20.99L5.18 21.01L5.33 21.02L5.47 21.03L5.62 21.04L5.76 21.05L5.91 21.06L6.05 21.07L6.2 21.09L6.34 21.1L6.49 21.11L6.63 21.12L6.77 21.13L6.92 21.14L7.06 21.15L7.21 21.17L7.35 21.18L7.5 21.19L7.64 21.2L7.79 21.21L7.93 21.22M15.85 20.66L15.99 20.67L16.14 20.68L16.28 20.69L16.42 20.71L16.57 20.72L16.71 20.73L16.86 20.74L17 20.75L17.15 20.76L17.29 20.77L17.44 20.79L17.58 20.8L17.73 20.81L17.87 20.82L18.02 20.83L18.16 20.84L18.31 20.85L18.45 20.87L18.59 20.88L18.74 20.89L18.88 20.9L19.03 20.9L19.17 20.89L19.32 20.88L19.46 20.85L19.6 20.81L19.74 20.76L19.87 20.7L20 20.63L20.12 20.55L20.24 20.47L20.35 20.37L20.45 20.27L20.55 20.16L20.63 20.05L20.71 19.93L20.78 19.8L20.84 19.67L20.89 19.53L20.93 19.39L20.96 19.25L20.98 19.11L20.99 18.96L21.01 18.82L21.02 18.67L21.03 18.53L21.04 18.38L21.05 18.24L21.06 18.09L21.07 17.95L21.09 17.8L21.1 17.66L21.11 17.51L21.12 17.37L21.13 17.23L21.14 17.08L21.15 16.94L21.17 16.79L21.18 16.65L21.19 16.5L21.2 16.36L21.21 16.21L21.22 16.07"/>
</svg>
